#tb 0: 1/25
0,          0,          0,        1,    38016, 0x295a375c
0,          1,          1,        1,    38016, 0xd0da1f37
0,          2,          2,        1,    38016, 0x0e5ed514
0,          3,          3,        1,    38016, 0x477dcbe7
0,          4,          4,        1,    38016, 0x2e0980f3
0,          5,          5,        1,    38016, 0xf6d0888f
0,          6,          6,        1,    38016, 0x884f4bf2
0,          7,          7,        1,    38016, 0x75135ea9
0,          8,          8,        1,    38016, 0xc85031bd
0,          9,          9,        1,    38016, 0x4dde6353
0,         10,         10,        1,    38016, 0x8c8f4f2a
0,         11,         11,        1,    38016, 0xbdae892b
0,         12,         12,        1,    38016, 0x4898783a
0,         13,         13,        1,    38016, 0xb4cc9d6b
0,         14,         14,        1,    38016, 0xd24f8797
0,         15,         15,        1,    38016, 0x74c4a0df
0,         16,         16,        1,    38016, 0x43e58a83
0,         17,         17,        1,    38016, 0x05bba901
0,         18,         18,        1,    38016, 0xe2d57f63
0,         19,         19,        1,    38016, 0xdb398611
0,         20,         20,        1,    38016, 0x7f143de2
0,         21,         21,        1,    38016, 0xff39406f
0,         22,         22,        1,    38016, 0xfed61162
0,         23,         23,        1,    38016, 0xb9e62a1e
0,         24,         24,        1,    38016, 0x65f316d1
0,         25,         25,        1,    38016, 0xda782b9c
0,         26,         26,        1,    38016, 0xb64b202c
0,         27,         27,        1,    38016, 0xb2b141ea
0,         28,         28,        1,    38016, 0xdb6b421b
0,         29,         29,        1,    38016, 0xf3287342
0,         30,         30,        1,    38016, 0xfbb35b92
0,         31,         31,        1,    38016, 0x8c77a0de
0,         32,         32,        1,    38016, 0x326c9cb4
0,         33,         33,        1,    38016, 0x7e73cc0c
0,         34,         34,        1,    38016, 0xb948b8e9
0,         35,         35,        1,    38016, 0x6f7adb29
0,         36,         36,        1,    38016, 0xb629b8c5
0,         37,         37,        1,    38016, 0xf798ccd4
0,         38,         38,        1,    38016, 0xde5bb331
0,         39,         39,        1,    38016, 0xbca4d8dc
0,         40,         40,        1,    38016, 0x9369ba10
0,         41,         41,        1,    38016, 0x581ed965
0,         42,         42,        1,    38016, 0xce7bbd59
0,         43,         43,        1,    38016, 0x95d9ce3d
0,         44,         44,        1,    38016, 0x6154bd98
0,         45,         45,        1,    38016, 0xa279c487
0,         46,         46,        1,    38016, 0x8169b5a6
0,         47,         47,        1,    38016, 0x709dc334
0,         48,         48,        1,    38016, 0x82aabea1
0,         49,         49,        1,    38016, 0x6923c4c3
